<svg id="Laag_1" data-name="Laag 1" xmlns="http://www.w3.org/2000/svg" viewBox="0 0 221.27 113.51"><defs><style>.cls-1{fill:none;stroke:#9e4e5e;stroke-miterlimit:10;stroke-width:1.94px;}.cls-2{font-size:15.95px;fill:#010101;}.cls-2,.cls-5{font-family:Calibri-Light, Calibri;font-weight:300;}.cls-3{letter-spacing:0em;}.cls-4{fill:#63353f;}.cls-5{font-size:10.63px;fill:#fff;}.cls-6{letter-spacing:-0.08em;}.cls-7{letter-spacing:-0.01em;}.cls-8{letter-spacing:-0.01em;}</style></defs><g id="zeshoek_category"><polygon class="cls-1" points="49.15 1.12 0.97 28.94 0.97 84.58 49.15 112.39 75.49 97.19 97.34 84.58 97.34 28.94 49.15 1.12"/><text class="cls-2" transform="translate(29.18 40.08)">NAME</text><text class="cls-2" transform="translate(15.78 71.78)">FUN<tspan class="cls-3" x="27.65" y="0">C</tspan><tspan x="36.26" y="0">TION</tspan></text></g><g id="zeshoek_subcategory"><polygon class="cls-1" points="172.11 1.12 123.93 28.94 123.93 84.58 172.11 112.39 198.45 97.19 220.3 84.58 220.3 28.94 172.11 1.12"/><text class="cls-2" transform="translate(152.14 40.37)">NAME</text><text class="cls-2" transform="translate(138.74 72.07)">FUN<tspan class="cls-3" x="27.65" y="0">C</tspan><tspan x="36.26" y="0">TION</tspan></text><polygon class="cls-4" points="123.93 84.86 220.3 84.86 172.11 112.68 123.93 84.86"/><text class="cls-5" transform="translate(141.11 93.7)">SUBC<tspan class="cls-6" x="22.95" y="0">A</tspan><tspan x="28.11" y="0">T</tspan><tspan class="cls-7" x="33.25" y="0">E</tspan><tspan x="38.34" y="0">GO</tspan><tspan class="cls-8" x="51.96" y="0">R</tspan><tspan x="57.49" y="0">Y</tspan></text></g></svg>